<svg xmlns="http://www.w3.org/2000/svg" version="1.1" xmlns:xlink="http://www.w3.org/1999/xlink" xmlns:svgjs="http://svgjs.dev/svgjs" viewBox="0 0 800 800"><defs><linearGradient x1="50%" y1="0%" x2="50%" y2="100%" id="vvvortex-grad"><stop stop-color="#fafafa" stop-opacity="1" offset="0%"></stop><stop stop-color="#fafafa" stop-opacity="1" offset="100%"></stop></linearGradient></defs><g stroke="url(#vvvortex-grad)" fill="none" stroke-linecap="round"><circle r="378" cx="400" cy="400" stroke-width="9" stroke-dasharray="22 28" stroke-dashoffset="25" transform="rotate(310, 400, 400)" opacity="0.81"></circle><circle r="357" cx="400" cy="400" stroke-width="8" stroke-dasharray="53 55" stroke-dashoffset="25" transform="rotate(47, 400, 400)" opacity="0.26"></circle><circle r="336" cx="400" cy="400" stroke-width="8" stroke-dasharray="42 27" stroke-dashoffset="25" transform="rotate(24, 400, 400)" opacity="0.20"></circle><circle r="315" cx="400" cy="400" stroke-width="7" stroke-dasharray="18 50" stroke-dashoffset="25" transform="rotate(274, 400, 400)" opacity="0.54"></circle><circle r="294" cx="400" cy="400" stroke-width="7" stroke-dasharray="40 29" stroke-dashoffset="25" transform="rotate(320, 400, 400)" opacity="0.64"></circle><circle r="273" cx="400" cy="400" stroke-width="7" stroke-dasharray="49 17" stroke-dashoffset="25" transform="rotate(139, 400, 400)" opacity="0.29"></circle><circle r="252" cx="400" cy="400" stroke-width="6" stroke-dasharray="13 55" stroke-dashoffset="25" transform="rotate(295, 400, 400)" opacity="0.72"></circle><circle r="231" cx="400" cy="400" stroke-width="6" stroke-dasharray="39 49" stroke-dashoffset="25" transform="rotate(118, 400, 400)" opacity="0.45"></circle><circle r="210" cx="400" cy="400" stroke-width="6" stroke-dasharray="23 40" stroke-dashoffset="25" transform="rotate(60, 400, 400)" opacity="0.28"></circle><circle r="189" cx="400" cy="400" stroke-width="5" stroke-dasharray="48 20" stroke-dashoffset="25" transform="rotate(303, 400, 400)" opacity="0.73"></circle><circle r="168" cx="400" cy="400" stroke-width="5" stroke-dasharray="42 36" stroke-dashoffset="25" transform="rotate(217, 400, 400)" opacity="0.64"></circle><circle r="147" cx="400" cy="400" stroke-width="5" stroke-dasharray="34 34" stroke-dashoffset="25" transform="rotate(286, 400, 400)" opacity="0.41"></circle><circle r="126" cx="400" cy="400" stroke-width="4" stroke-dasharray="13 42" stroke-dashoffset="25" transform="rotate(26, 400, 400)" opacity="0.94"></circle><circle r="105" cx="400" cy="400" stroke-width="4" stroke-dasharray="46 37" stroke-dashoffset="25" transform="rotate(120, 400, 400)" opacity="0.15"></circle><circle r="84" cx="400" cy="400" stroke-width="4" stroke-dasharray="11 48" stroke-dashoffset="25" transform="rotate(312, 400, 400)" opacity="0.74"></circle><circle r="63" cx="400" cy="400" stroke-width="3" stroke-dasharray="40 20" stroke-dashoffset="25" transform="rotate(246, 400, 400)" opacity="0.59"></circle><circle r="42" cx="400" cy="400" stroke-width="3" stroke-dasharray="41 25" stroke-dashoffset="25" transform="rotate(254, 400, 400)" opacity="0.24"></circle><circle r="21" cx="400" cy="400" stroke-width="3" stroke-dasharray="11 43" stroke-dashoffset="25" transform="rotate(245, 400, 400)" opacity="0.49"></circle></g></svg>