<svg xmlns="http://www.w3.org/2000/svg" version="1.1" xmlns:xlink="http://www.w3.org/1999/xlink" xmlns:svgjs="http://svgjs.dev/svgjs" viewBox="0 0 800 800"><defs><linearGradient x1="50%" y1="0%" x2="50%" y2="100%" id="vvvortex-grad"><stop stop-color="#8e8eeb" stop-opacity="1" offset="0%"></stop><stop stop-color="#e3ade9" stop-opacity="1" offset="100%"></stop></linearGradient></defs><g stroke="url(#vvvortex-grad)" fill="none" stroke-linecap="round"><circle r="391" cx="400" cy="400" stroke-width="9" stroke-dasharray="20 19" stroke-dashoffset="25" transform="rotate(272, 400, 400)" opacity="0.12"></circle><circle r="374" cx="400" cy="400" stroke-width="8" stroke-dasharray="54 35" stroke-dashoffset="25" transform="rotate(292, 400, 400)" opacity="0.17"></circle><circle r="357" cx="400" cy="400" stroke-width="8" stroke-dasharray="29 46" stroke-dashoffset="25" transform="rotate(3, 400, 400)" opacity="0.89"></circle><circle r="340" cx="400" cy="400" stroke-width="8" stroke-dasharray="45 50" stroke-dashoffset="25" transform="rotate(167, 400, 400)" opacity="0.98"></circle><circle r="323" cx="400" cy="400" stroke-width="7" stroke-dasharray="10 35" stroke-dashoffset="25" transform="rotate(34, 400, 400)" opacity="0.72"></circle><circle r="306" cx="400" cy="400" stroke-width="7" stroke-dasharray="10 27" stroke-dashoffset="25" transform="rotate(126, 400, 400)" opacity="0.82"></circle><circle r="289" cx="400" cy="400" stroke-width="7" stroke-dasharray="42 33" stroke-dashoffset="25" transform="rotate(14, 400, 400)" opacity="0.28"></circle><circle r="272" cx="400" cy="400" stroke-width="7" stroke-dasharray="27 28" stroke-dashoffset="25" transform="rotate(228, 400, 400)" opacity="0.73"></circle><circle r="255" cx="400" cy="400" stroke-width="6" stroke-dasharray="10 24" stroke-dashoffset="25" transform="rotate(73, 400, 400)" opacity="0.55"></circle><circle r="238" cx="400" cy="400" stroke-width="6" stroke-dasharray="33 42" stroke-dashoffset="25" transform="rotate(62, 400, 400)" opacity="0.71"></circle><circle r="221" cx="400" cy="400" stroke-width="6" stroke-dasharray="34 24" stroke-dashoffset="25" transform="rotate(201, 400, 400)" opacity="0.79"></circle><circle r="204" cx="400" cy="400" stroke-width="6" stroke-dasharray="28 12" stroke-dashoffset="25" transform="rotate(302, 400, 400)" opacity="0.40"></circle><circle r="187" cx="400" cy="400" stroke-width="5" stroke-dasharray="13 43" stroke-dashoffset="25" transform="rotate(235, 400, 400)" opacity="0.68"></circle><circle r="170" cx="400" cy="400" stroke-width="5" stroke-dasharray="16 37" stroke-dashoffset="25" transform="rotate(268, 400, 400)" opacity="0.16"></circle><circle r="153" cx="400" cy="400" stroke-width="5" stroke-dasharray="31 12" stroke-dashoffset="25" transform="rotate(33, 400, 400)" opacity="0.23"></circle><circle r="136" cx="400" cy="400" stroke-width="4" stroke-dasharray="36 29" stroke-dashoffset="25" transform="rotate(71, 400, 400)" opacity="0.12"></circle><circle r="119" cx="400" cy="400" stroke-width="4" stroke-dasharray="32 26" stroke-dashoffset="25" transform="rotate(344, 400, 400)" opacity="0.12"></circle><circle r="102" cx="400" cy="400" stroke-width="4" stroke-dasharray="26 16" stroke-dashoffset="25" transform="rotate(256, 400, 400)" opacity="0.12"></circle><circle r="85" cx="400" cy="400" stroke-width="4" stroke-dasharray="16 47" stroke-dashoffset="25" transform="rotate(58, 400, 400)" opacity="0.90"></circle><circle r="68" cx="400" cy="400" stroke-width="3" stroke-dasharray="36 50" stroke-dashoffset="25" transform="rotate(188, 400, 400)" opacity="0.40"></circle><circle r="51" cx="400" cy="400" stroke-width="3" stroke-dasharray="15 31" stroke-dashoffset="25" transform="rotate(92, 400, 400)" opacity="0.47"></circle><circle r="34" cx="400" cy="400" stroke-width="3" stroke-dasharray="44 24" stroke-dashoffset="25" transform="rotate(148, 400, 400)" opacity="0.53"></circle><circle r="17" cx="400" cy="400" stroke-width="3" stroke-dasharray="11 46" stroke-dashoffset="25" transform="rotate(100, 400, 400)" opacity="0.66"></circle></g></svg>